<?xml version="1.0" encoding="UTF-8" standalone="no"?>
<!-- Created with Inkscape (http://www.inkscape.org/) -->

<svg
   width="511.99997"
   height="511.99994"
   viewBox="0 0 135.46666 135.46665"
   version="1.1"
   id="svg5"
   xml:space="preserve"
   sodipodi:docname="sources-logo.svg"
   inkscape:version="1.2.2 (b0a8486, 2022-12-01)"
   inkscape:export-filename="logo.svg"
   inkscape:export-xdpi="96"
   inkscape:export-ydpi="96"
   xmlns:inkscape="http://www.inkscape.org/namespaces/inkscape"
   xmlns:sodipodi="http://sodipodi.sourceforge.net/DTD/sodipodi-0.dtd"
   xmlns="http://www.w3.org/2000/svg"
   xmlns:svg="http://www.w3.org/2000/svg"><sodipodi:namedview
     id="namedview7"
     pagecolor="#ffffff"
     bordercolor="#000000"
     borderopacity="0.25"
     inkscape:showpageshadow="2"
     inkscape:pageopacity="0.0"
     inkscape:pagecheckerboard="0"
     inkscape:deskcolor="#d1d1d1"
     inkscape:document-units="px"
     showgrid="false"
     inkscape:zoom="2.8284271"
     inkscape:cx="-327.74399"
     inkscape:cy="792.84348"
     inkscape:window-width="2396"
     inkscape:window-height="1027"
     inkscape:window-x="129"
     inkscape:window-y="25"
     inkscape:window-maximized="0"
     inkscape:current-layer="layer1" /><defs
     id="defs2" /><g
     inkscape:label="Layer 1"
     inkscape:groupmode="layer"
     id="layer1"
     transform="translate(169.17786,-204.03089)"><g
       id="g9318"
       transform="translate(-509.62953,185.59195)"
       inkscape:export-filename="logo-white-bg-512.png"
       inkscape:export-xdpi="96"
       inkscape:export-ydpi="96"><rect
         style="opacity:1;fill:#ffffff;fill-opacity:1;stroke-width:0.849024"
         id="rect9306"
         width="135.46666"
         height="135.46666"
         x="340.45166"
         y="18.438934" /><g
         id="g9304"
         transform="translate(578.46759,-292.09628)"><g
           id="g3819"
           transform="translate(-301.27206,148.57944)"><path
             id="rect3197-9"
             style="fill:#142142;fill-opacity:1;stroke-width:1.0269"
             d="m 133.17547,197.99558 h 27.70374 c 1.62089,0 2.9258,1.30491 2.9258,2.9258 v 12.7744 c 0,1.62089 -1.30491,2.9258 -2.9258,2.9258 H 97.489501 c -1.62089,0 -2.9258,-1.30491 -2.9258,-2.9258 v -12.7744 c 0,-1.62089 1.30491,-2.9258 2.9258,-2.9258 h 31.751259"
             sodipodi:nodetypes="cssssssssc" /><path
             id="rect3197-5-0"
             style="fill:#142142;fill-opacity:1;stroke-width:1.02372"
             d="m 97.621751,221.74202 63.375869,0.0935 c 1.64721,0.002 6.43446,-0.0771 6.43446,4.84421 v 9.69897 c 0,1.64722 -1.32611,2.97332 -2.97332,2.97332 H 97.621751 c -1.64722,0 -2.97332,-1.3261 -2.97332,-2.97332 v -11.6634 c 0,-1.64722 1.326102,-2.97575 2.97332,-2.97332 z"
             sodipodi:nodetypes="sssssssss" /><path
             id="rect3197-5-2-2"
             style="fill:#142142;fill-opacity:1;stroke-width:1.03982"
             d="m 98.299991,244.23545 h 65.649959 c 1.2778,-0.0326 2.0803,0.22877 2.58356,0.67107 0.94122,0.82721 0.88254,2.31067 0.88218,3.66426 l -0.0488,7.29807 c -0.007,0.99828 -1.14268,3.27979 -3.2113,4.65259 -2.23596,1.48385 -5.5269,1.79141 -6.60594,1.79141 h 1.49984 -60.749599 c -2.07734,0 -3.7497,-1.67236 -3.7497,-3.7497 v -10.578 c 0,-2.07733 1.67236,-3.7497 3.7497,-3.7497 z"
             sodipodi:nodetypes="scscssscsssss" /><rect
             style="fill:#ffffff;fill-opacity:1;stroke-width:0.136228"
             id="rect405-1-5-2-8"
             width="4.025423"
             height="64.323143"
             x="129.15028"
             y="197.99377"
             ry="0" /><rect
             style="fill:#131f40;fill-opacity:1;stroke-width:0.136222"
             id="rect405-1-5-2-4-3"
             width="4.025423"
             height="64.318275"
             x="125.21873"
             y="197.99725"
             ry="0" /><path
             id="rect3751"
             style="opacity:1;fill:#142142;fill-opacity:1;stroke-width:1.05305"
             d="m 156.96248,239.34388 v -3.26321 h 10.47696 v 12.4414 h -10.47696 v -4.2905 c 0,0 0.83833,0.0985 1.55725,-0.84349 0.49932,-0.6543 0.41236,-1.154 0.4125,-1.63394 9e-5,-0.3433 -0.16395,-1.07515 -0.27223,-1.31563 -0.48285,-1.07237 -1.67977,-1.11233 -1.69752,-1.09463"
             sodipodi:nodetypes="ccccccsssc" /></g><path
           id="path508"
           style="opacity:1;fill:#142142;fill-opacity:1;stroke-width:0.874265"
           d="m -170.28234,317.64693 a 58.42033,60.621586 0 0 0 -58.42072,60.62161 58.42033,60.621586 0 0 0 58.42072,60.62162 58.42033,60.621586 0 0 0 58.42021,-60.62162 58.42033,60.621586 0 0 0 -58.42021,-60.62161 z m 0,5.68751 a 53.133053,54.933853 0 0 1 53.13268,54.9341 53.133053,54.933853 0 0 1 -53.13268,54.9336 53.133053,54.933853 0 0 1 -53.13319,-54.9336 53.133053,54.933853 0 0 1 53.13319,-54.9341 z" /></g></g></g></svg>
